<svg width="30" height="30" viewBox="0 0 30 30" fill="none" xmlns="http://www.w3.org/2000/svg">
<path d="M5 15C5 11.2288 5 9.34315 6.17157 8.17157C7.34315 7 9.22876 7 13 7H17C20.7712 7 22.6569 7 23.8284 8.17157C25 9.34315 25 11.2288 25 15V17C25 20.7712 25 22.6569 23.8284 23.8284C22.6569 25 20.7712 25 17 25H13C9.22876 25 7.34315 25 6.17157 23.8284C5 22.6569 5 20.7712 5 17V15Z" stroke="#1C274C" stroke-width="1.5"/>
<path d="M10 7V5.5" stroke="#1C274C" stroke-width="1.5" stroke-linecap="round"/>
<path d="M20 7V5.5" stroke="#1C274C" stroke-width="1.5" stroke-linecap="round"/>
<path d="M12 17.5L13.5 16V20" stroke="#1C274C" stroke-width="1.5" stroke-linecap="round" stroke-linejoin="round"/>
<path d="M16 19V17C16 16.4477 16.4477 16 17 16C17.5523 16 18 16.4477 18 17V19C18 19.5523 17.5523 20 17 20C16.4477 20 16 19.5523 16 19Z" stroke="#1C274C" stroke-width="1.5" stroke-linecap="round"/>
<path d="M5.5 12H24.5" stroke="#1C274C" stroke-width="1.5" stroke-linecap="round"/>
</svg>
