<svg width="14" height="14" viewBox="0 0 14 14" fill="none" xmlns="http://www.w3.org/2000/svg">
<g clip-path="url(#clip0_1222_32564)">
<path d="M8.35102 5.30659C8.2998 5.16168 8.22076 5.02991 8.12033 4.9177C7.9067 4.67902 7.59626 4.52881 7.25073 4.52881H6.34768C5.77253 4.52881 5.30627 4.99506 5.30627 5.57022C5.30627 6.05962 5.64704 6.48299 6.12514 6.58757L7.50004 6.88833C8.03564 7.0055 8.4174 7.48013 8.4174 8.0284C8.4174 8.67273 7.89506 9.1955 7.25073 9.1955H6.47295C5.96497 9.1955 5.53282 8.87085 5.37266 8.41772" stroke="black" stroke-linecap="round" stroke-linejoin="round"/>
<path d="M6.86194 4.52898V3.3623" stroke="black" stroke-linecap="round" stroke-linejoin="round"/>
<path d="M6.86194 10.3622V9.19556" stroke="black" stroke-linecap="round" stroke-linejoin="round"/>
<path d="M1.99841 13.4985V10.9985H4.49841" stroke="black" stroke-linecap="round" stroke-linejoin="round"/>
<path d="M13.3881 5.80396C14.0101 9.1119 11.9858 12.3914 8.68077 13.2769C6.15122 13.9547 3.57023 13.043 1.99829 11.154" stroke="black" stroke-linecap="round" stroke-linejoin="round"/>
<path d="M0.611985 8.19607C-0.0100564 4.88813 2.01426 1.60867 5.31929 0.723095C7.84867 0.0453497 10.4295 0.95692 12.0015 2.84565" stroke="black" stroke-linecap="round" stroke-linejoin="round"/>
<path d="M12.0015 0.501709V3.00171H9.50146" stroke="black" stroke-linecap="round" stroke-linejoin="round"/>
</g>
<defs>
<clipPath id="clip0_1222_32564">
<rect width="14" height="14" fill="white"/>
</clipPath>
</defs>
</svg>
