<svg width="30" height="30" viewBox="0 0 30 30" fill="none" xmlns="http://www.w3.org/2000/svg">
<path d="M21.18 11.0393L21.6435 10.5759C22.4113 9.80804 23.6563 9.80804 24.4241 10.5759C25.192 11.3437 25.192 12.5887 24.4241 13.3565L23.9607 13.82M21.18 11.0393C21.18 11.0393 21.238 12.0241 22.1069 12.8931C22.9759 13.762 23.9607 13.82 23.9607 13.82M21.18 11.0393L16.9194 15.2999C16.6308 15.5885 16.4865 15.7328 16.3624 15.8919C16.2161 16.0796 16.0906 16.2827 15.9882 16.4975C15.9014 16.6797 15.8368 16.8732 15.7078 17.2604L15.2946 18.5L15.1609 18.901M23.9607 13.82L19.7001 18.0806C19.4115 18.3692 19.2672 18.5135 19.1081 18.6376C18.9204 18.7839 18.7173 18.9094 18.5025 19.0118C18.3203 19.0986 18.1268 19.1632 17.7396 19.2922L16.5 19.7054L16.099 19.8391M16.099 19.8391L15.6979 19.9728C15.5074 20.0363 15.2973 19.9867 15.1553 19.8447C15.0133 19.7027 14.9637 19.4926 15.0272 19.3021L15.1609 18.901M16.099 19.8391L15.1609 18.901" stroke="#1C274C" stroke-width="1.5"/>
<path d="M11 16H13.5" stroke="#1C274C" stroke-width="1.5" stroke-linecap="round"/>
<path d="M11 12H17.5" stroke="#1C274C" stroke-width="1.5" stroke-linecap="round"/>
<path d="M11 20H12.5" stroke="#1C274C" stroke-width="1.5" stroke-linecap="round"/>
<path d="M22.8284 6.17157C21.6569 5 19.7712 5 16 5H14C10.2288 5 8.34315 5 7.17157 6.17157C6 7.34315 6 9.22876 6 13V17C6 20.7712 6 22.6569 7.17157 23.8284C8.34315 25 10.2288 25 14 25H16C19.7712 25 21.6569 25 22.8284 23.8284C23.7715 22.8853 23.9554 21.4796 23.9913 19" stroke="#1C274C" stroke-width="1.5" stroke-linecap="round"/>
</svg>
