<svg width="30" height="30" viewBox="0 0 30 30" fill="none" xmlns="http://www.w3.org/2000/svg">
<path d="M9.00879 11C9.04466 8.52043 9.22859 7.11466 10.1717 6.17157C11.3432 5 13.2289 5 17.0001 5C20.7713 5 22.657 5 23.8285 6.17157C25.0001 7.34315 25.0001 9.22876 25.0001 13V17C25.0001 20.7712 25.0001 22.6569 23.8285 23.8284C22.657 25 20.7713 25 17.0001 25H15" stroke="#1C274C" stroke-width="1.5" stroke-linecap="round"/>
<path d="M5 17.5C5 16.0955 5 15.3933 5.33706 14.8889C5.48298 14.6705 5.67048 14.483 5.88886 14.3371C6.39331 14 7.09554 14 8.5 14C9.90446 14 10.6067 14 11.1111 14.3371C11.3295 14.483 11.517 14.6705 11.6629 14.8889C12 15.3933 12 16.0955 12 17.5V21.5C12 22.9045 12 23.6067 11.6629 24.1111C11.517 24.3295 11.3295 24.517 11.1111 24.6629C10.6067 25 9.90446 25 8.5 25C7.09554 25 6.39331 25 5.88886 24.6629C5.67048 24.517 5.48298 24.3295 5.33706 24.1111C5 23.6067 5 22.9045 5 21.5V17.5Z" stroke="#1C274C" stroke-width="1.5"/>
<path d="M20 22H15" stroke="#1C274C" stroke-width="1.5" stroke-linecap="round"/>
</svg>
