<svg width="16" height="16" viewBox="0 0 16 16" fill="none" xmlns="http://www.w3.org/2000/svg">
<path fill-rule="evenodd" clip-rule="evenodd" d="M0 8C0 12.4183 3.58172 16 8 16C12.4183 16 16 12.4183 16 8C16 3.58172 12.4183 0 8 0C3.58172 0 0 3.58172 0 8Z" fill="#B30013"/>
<path d="M7.99967 4C5.79152 4 4 5.79152 4 7.99967C4 10.2078 5.79152 12 7.99967 12C10.2078 12 12 10.2078 12 7.99967C12 5.79152 10.2078 4 7.99967 4ZM7.98115 10.4426C7.6624 10.4426 7.41043 10.1906 7.41043 9.87253C7.41043 9.55377 7.66173 9.30247 7.98115 9.30247C8.29859 9.30247 8.55187 9.55377 8.55187 9.87253C8.55187 10.1906 8.29925 10.4426 7.98115 10.4426ZM8.82103 7.85815L8.44937 8.18153C8.16897 8.42688 8.21724 8.5479 8.21724 8.69802H7.80061V8.54592C7.80061 7.81119 8.50161 7.68554 8.50161 6.60031C8.50161 6.18368 8.36472 5.99322 8.01885 5.99322C7.70009 5.99322 7.55725 6.14929 7.60288 6.52492C7.63131 6.76168 7.39258 6.85492 7.23717 6.85492C7.05993 6.85492 6.91113 6.67967 6.91113 6.44094C6.91113 6.03885 7.33438 5.61495 8.07109 5.61495C8.78863 5.61495 9.41357 5.93833 9.41357 6.72001C9.41423 7.20278 9.23832 7.49376 8.82103 7.85815Z" fill="white"/>
</svg>
