<svg width="16" height="16" viewBox="0 0 16 16" fill="none" xmlns="http://www.w3.org/2000/svg">
<path fill-rule="evenodd" clip-rule="evenodd" d="M0 8C0 12.4183 3.58172 16 8 16C12.4183 16 16 12.4183 16 8C16 3.58172 12.4183 0 8 0C3.58172 0 0 3.58172 0 8Z" fill="#B30013"/>
<g clip-path="url(#clip0_904_39)">
<path d="M5.47583 11.2009L6.31665 10.3201C6.35521 10.2798 6.40495 10.2574 6.45654 10.2572H8.49268C8.50165 10.2574 8.51055 10.2554 8.51886 10.2514C8.52717 10.2474 8.53471 10.2415 8.54106 10.234C8.5474 10.2266 8.55242 10.2177 8.55581 10.2079C8.55919 10.1982 8.56089 10.1877 8.56079 10.1772V9.67431H8.98047V10.1772C8.97989 10.3295 8.92816 10.4754 8.83653 10.5831C8.7449 10.6908 8.62079 10.7517 8.49121 10.7523H6.53564L5.41357 11.9277C5.38431 11.9621 5.34705 11.9856 5.30646 11.9952C5.26588 12.0049 5.22378 12.0002 5.18545 11.9818C5.14711 11.9634 5.11426 11.9321 5.09099 11.8918C5.06773 11.8516 5.0551 11.8041 5.05469 11.7555V10.7523H4.48999C4.36028 10.7519 4.23599 10.6912 4.1442 10.5834C4.05241 10.4757 4.00058 10.3296 4 10.1772V6.46174C4.00152 6.3096 4.05366 6.16421 4.14524 6.0567C4.23683 5.9492 4.36058 5.88812 4.48999 5.88656H7.17505V6.38166H4.48999C4.47219 6.38287 4.45538 6.39167 4.4427 6.40641C4.43003 6.42115 4.42236 6.44083 4.42114 6.46174V10.1772C4.42121 10.1876 4.42306 10.198 4.42658 10.2076C4.4301 10.2172 4.43523 10.2259 4.44165 10.2331C4.45468 10.2479 4.4719 10.2565 4.48999 10.2572H5.26489C5.32084 10.2572 5.37449 10.2834 5.41405 10.3299C5.45361 10.3764 5.47583 10.4395 5.47583 10.5052V11.2009ZM5.49121 9.52363L6.16797 7.12044H6.8147L7.49145 9.52363H6.95532L6.8418 9.08621H6.13501L6.02441 9.52363H5.49121ZM6.25513 8.58422H6.72168L6.49023 7.60004L6.25513 8.58422ZM9.61255 5.1495H10.2498V4.95662C10.2498 4.94087 10.2551 4.92576 10.2646 4.91461C10.274 4.90347 10.2869 4.89721 10.3003 4.89721H10.6409C10.6475 4.89721 10.654 4.89875 10.6601 4.90175C10.6662 4.90475 10.6717 4.90914 10.6763 4.91466C10.681 4.92019 10.6846 4.92675 10.6871 4.93395C10.6896 4.94116 10.6908 4.94886 10.6907 4.95662V5.1495H11.4055C11.4121 5.1495 11.4187 5.15104 11.4247 5.15404C11.4308 5.15703 11.4364 5.16142 11.441 5.16695C11.4456 5.17248 11.4493 5.17904 11.4517 5.18624C11.4542 5.19344 11.4554 5.20115 11.4553 5.20891V5.59294C11.4553 5.60847 11.4501 5.62336 11.4407 5.63434C11.4314 5.64532 11.4187 5.65149 11.4055 5.65149H11.292C11.277 5.76467 11.2547 5.87636 11.2253 5.98558V5.99074C11.1917 6.11395 11.1491 6.23351 11.0979 6.34808C11.0509 6.45027 10.9986 6.54891 10.9412 6.64342C10.8921 6.72952 10.8379 6.80702 10.78 6.88709C10.8628 7.00472 10.9529 7.11495 11.0496 7.21688C11.1667 7.33522 11.2913 7.44287 11.4224 7.53891C11.4279 7.54303 11.4327 7.54839 11.4365 7.55469C11.4402 7.56099 11.4429 7.56811 11.4443 7.57562C11.4458 7.58314 11.4459 7.59092 11.4448 7.59851C11.4437 7.6061 11.4413 7.61335 11.4377 7.61985L11.2627 7.94102C11.2591 7.9481 11.2542 7.95421 11.2485 7.95897C11.2427 7.96372 11.2362 7.96702 11.2293 7.96864C11.2224 7.97026 11.2153 7.97017 11.2084 7.96838C11.2016 7.96659 11.1951 7.96314 11.1895 7.95824C11.0459 7.85339 10.9093 7.73595 10.7808 7.60693C10.6763 7.49734 10.5784 7.37939 10.4878 7.2539C10.394 7.35206 10.3098 7.44419 10.2256 7.5303C10.126 7.62674 10.0212 7.71973 9.89819 7.81961C9.89267 7.82462 9.88632 7.82824 9.87955 7.83022C9.87277 7.83221 9.86573 7.83253 9.85885 7.83115C9.85196 7.82977 9.8454 7.82674 9.83957 7.82223C9.83373 7.81773 9.82876 7.81185 9.82495 7.80497L9.63965 7.48983C9.63538 7.48333 9.63231 7.47587 9.63062 7.46791C9.62893 7.45995 9.62866 7.45166 9.62983 7.44357C9.631 7.43548 9.63358 7.42776 9.63742 7.42091C9.64125 7.41405 9.64625 7.4082 9.6521 7.40372C9.77368 7.30556 9.87183 7.21515 9.97144 7.1213C10.0564 7.0352 10.1384 6.94909 10.2271 6.84921C10.1531 6.72625 10.0854 6.59831 10.0242 6.46604C9.95437 6.30869 9.89913 6.143 9.85938 5.9718C9.85759 5.96439 9.85706 5.95665 9.85783 5.949C9.85859 5.94136 9.86063 5.93396 9.86383 5.92724C9.86703 5.92053 9.87132 5.91462 9.87646 5.90985C9.8816 5.90508 9.8875 5.90156 9.8938 5.89947L10.2065 5.79701C10.2128 5.79491 10.2194 5.79429 10.2259 5.79519C10.2324 5.79609 10.2387 5.79848 10.2444 5.80224C10.2502 5.806 10.2552 5.81105 10.2592 5.81709C10.2633 5.82314 10.2663 5.83007 10.2681 5.83748C10.3184 6.06475 10.4032 6.27945 10.5186 6.47121L10.6116 6.32483C10.6517 6.25638 10.6886 6.18538 10.7222 6.11215C10.7577 6.03162 10.7876 5.94782 10.8115 5.86159C10.8308 5.7926 10.8469 5.72247 10.8599 5.65149H9.61475C9.60147 5.65149 9.58872 5.64535 9.57927 5.63439C9.56981 5.62344 9.5644 5.60855 9.56421 5.59294V5.20547C9.56421 5.18971 9.56953 5.1746 9.57901 5.16346C9.58849 5.15231 9.60134 5.14606 9.61475 5.14606L9.61255 5.1495ZM11.5901 10.042L10.4644 8.86578H8.50732C8.37773 8.86488 8.25366 8.80402 8.16195 8.69637C8.07025 8.58873 8.01829 8.44295 8.01733 8.2906V4.57604C8.01849 4.42312 8.07116 4.27697 8.16382 4.16963L8.17847 4.15413C8.26784 4.05622 8.38517 4.00123 8.50732 4H12.51C12.6399 4.00139 12.7639 4.06333 12.855 4.17221L12.8689 4.18943C12.9524 4.29503 12.9992 4.43359 13 4.57776V8.2906C12.999 8.44295 12.9471 8.58873 12.8554 8.69637C12.7637 8.80402 12.6396 8.86488 12.51 8.86578H11.946V9.86632C11.9454 9.91499 11.9327 9.96236 11.9093 10.0026C11.8859 10.0427 11.853 10.074 11.8147 10.0923C11.7764 10.1107 11.7343 10.1154 11.6937 10.1058C11.6531 10.0962 11.6158 10.0728 11.5864 10.0385L11.5901 10.042ZM10.6841 8.43354L11.5242 9.31439V8.61866C11.5242 8.55289 11.5464 8.48982 11.586 8.44331C11.6255 8.39681 11.6792 8.37068 11.7351 8.37068H12.51C12.5189 8.37056 12.5277 8.36836 12.5359 8.36422C12.544 8.36009 12.5514 8.35409 12.5576 8.34657C12.5642 8.3394 12.5694 8.33075 12.5731 8.32113C12.5767 8.31151 12.5787 8.30113 12.5789 8.2906V4.57604C12.5781 4.55781 12.5725 4.54032 12.5627 4.5261L12.5576 4.51663C12.5449 4.50172 12.5279 4.49284 12.51 4.49166H8.50732C8.49214 4.49455 8.47821 4.50334 8.46777 4.51663H8.45972C8.45332 4.5239 8.44822 4.5326 8.4447 4.5422C8.44118 4.55181 8.43932 4.56214 8.43921 4.5726V8.2906C8.43911 8.30115 8.44081 8.31162 8.44419 8.32138C8.44758 8.33115 8.4526 8.34003 8.45894 8.34748C8.46529 8.35494 8.47283 8.36084 8.48114 8.36482C8.48945 8.3688 8.49835 8.3708 8.50732 8.37068H10.5442C10.5958 8.37065 10.6456 8.39304 10.6841 8.43354Z" fill="white"/>
</g>
<defs>
<clipPath id="clip0_904_39">
<rect width="9" height="8" fill="white" transform="translate(4 4)"/>
</clipPath>
</defs>
</svg>
