<svg width="16" height="16" viewBox="0 0 16 16" fill="none" xmlns="http://www.w3.org/2000/svg">
<path fill-rule="evenodd" clip-rule="evenodd" d="M0 8C0 12.4183 3.58172 16 8 16C12.4183 16 16 12.4183 16 8C16 3.58172 12.4183 0 8 0C3.58172 0 0 3.58172 0 8Z" fill="#B30013"/>
<path fill-rule="evenodd" clip-rule="evenodd" d="M12.6261 5.15686C12.8141 5.40202 12.9435 5.72359 12.985 6.08231C13.0005 6.22028 12.9997 6.33915 12.9997 6.47499V8.71328C12.9997 8.83427 13.0021 8.95419 12.994 9.07518C12.9581 9.57611 12.7433 10.0378 12.4193 10.3105C12.0091 10.6576 11.5403 10.578 11.0495 10.578C11.2115 11.1596 11.5379 11.6966 11.8903 12.1031L11.7584 12.4257L11.7544 12.4236C10.9006 12.137 10.0004 11.479 9.45183 10.5769C9.11243 10.5727 8.83488 10.578 8.4963 10.5185C8.12353 10.8136 7.67995 11.0057 7.24206 11.0057C6.95801 11.4674 6.62756 11.8622 6.24991 12.1859C5.84214 12.535 5.38147 12.8003 4.86789 12.9765C4.84266 12.985 4.81743 12.9935 4.79138 12.9977C4.70267 13.0105 4.60988 12.9691 4.54639 12.8757C4.44221 12.7229 4.45361 12.4883 4.57081 12.3525C4.90289 11.9693 5.08846 11.5491 5.22113 11.0078C4.57325 11.0078 4.03119 11.097 3.50378 10.4103C2.84532 9.55064 3.00892 7.55221 3.04229 6.35294C3.05287 5.96769 3.03252 5.71404 3.15054 5.31181C3.30356 4.78753 3.62098 4.36407 4.02224 4.15393C4.39745 3.95653 4.80522 4.00535 5.20078 4.00535H7.60588C7.7825 4.00535 7.92656 4.00429 8.10725 4.05947C8.41165 4.15074 8.68757 4.36194 8.90325 4.66866L11.6803 4.66972C12.0474 4.66972 12.3624 4.81194 12.6261 5.15686ZM11.1317 8.54135H10.4017L10.3007 9.01469H9.64635C9.86529 8.2081 10.085 7.40045 10.304 6.5928C10.3829 6.30094 10.4725 5.81805 10.7598 5.81805C11.0577 5.81805 11.1562 6.26061 11.2392 6.56627L11.9049 9.01363H11.2343L11.1317 8.54135ZM10.9974 7.92049L10.7679 6.8889L10.54 7.92049H10.9974ZM9.23695 5.04648C9.51531 6.45907 9.81239 8.9404 9.06522 10.197C9.24184 10.2002 9.41601 10.2002 9.59263 10.2002C9.99308 10.8943 10.5075 11.3793 11.113 11.7337C11.17 11.7666 11.2278 11.7995 11.2856 11.8293C11.0796 11.5045 10.899 11.1299 10.7842 10.7329C10.7313 10.5493 10.7028 10.388 10.667 10.2002C10.833 10.2002 10.9958 10.2023 11.1627 10.2097C11.5314 10.2267 11.9196 10.2405 12.2264 10.0166C12.3591 9.91998 12.4657 9.78307 12.5496 9.61857C12.6236 9.47105 12.6757 9.3023 12.6985 9.12294C12.7156 8.98709 12.7099 8.83745 12.7099 8.69948V6.40176C12.7099 6.34127 12.7107 6.28608 12.7075 6.22559C12.6887 5.91463 12.5829 5.63232 12.4218 5.42218C12.2655 5.21735 12.0563 5.08151 11.8252 5.05179C11.7658 5.04436 11.7072 5.04542 11.6478 5.04542L9.23695 5.04648ZM4.72464 5.43174H5.81853V5.0295H6.30688V5.43174H7.40484V6.09186H7.17939C7.16148 6.27759 7.12811 6.46226 7.08254 6.6448H7.08335C7.03696 6.83053 6.97347 7.01732 6.89778 7.20198C6.76918 7.51507 6.60314 7.81542 6.41106 8.10409C6.71872 8.5838 7.09963 9.00089 7.5546 9.38084L7.30311 9.89132C6.82615 9.49227 6.42083 9.05289 6.08794 8.54665C5.79005 8.92235 5.45228 9.27258 5.09741 9.59203L4.83289 9.09322C5.18369 8.77696 5.51657 8.43097 5.80307 8.0627C5.53855 7.55858 5.3367 6.99291 5.19671 6.34233L5.64517 6.17889C5.75993 6.71273 5.92109 7.18182 6.12782 7.6021C6.26863 7.37922 6.39071 7.15104 6.48757 6.91649C6.54861 6.76791 6.6007 6.61296 6.64058 6.45483H6.6414C6.67151 6.33702 6.6943 6.21497 6.70977 6.09186H4.72464V5.43174Z" fill="white"/>
</svg>
