<svg width="16" height="16" viewBox="0 0 16 16" fill="none" xmlns="http://www.w3.org/2000/svg">
<path fill-rule="evenodd" clip-rule="evenodd" d="M0 8C0 12.4183 3.58172 16 8 16C12.4183 16 16 12.4183 16 8C16 3.58172 12.4183 0 8 0C3.58172 0 0 3.58172 0 8Z" fill="#B30013"/>
<path d="M6.22266 6C6.22803 5.12999 6.27088 4.65882 6.61239 4.35147C7.00292 4 7.63144 4 8.8885 4H9.33294C10.59 4 11.2186 4 11.6091 4.35147C11.9996 4.70294 11.9996 5.26863 11.9996 6.4V9.6C11.9996 10.7314 11.9996 11.297 11.6091 11.6485C11.2186 12 10.59 12 9.33294 12H8.8885C7.63144 12 7.00292 12 6.61239 11.6485C6.27088 11.3412 6.22803 10.87 6.22266 10" stroke="white" stroke-linecap="round"/>
<path d="M6.2222 11C5.17465 11 4.65087 11 4.32543 10.7071C4 10.4142 4 9.9428 4 9V7C4 6.0572 4 5.58579 4.32543 5.29289C4.65087 5 5.17465 5 6.2222 5" stroke="white"/>
<path d="M9.33297 7.99922H5.33301M5.33301 7.99922L6.22189 8.79922M5.33301 7.99922L6.22189 7.19922" stroke="white" stroke-linecap="round" stroke-linejoin="round"/>
</svg>
