<svg width="30" height="30" viewBox="0 0 30 30" fill="none" xmlns="http://www.w3.org/2000/svg">
<path d="M11 19C11 21.8284 11 23.2426 11.8787 24.1213C12.7574 25 14.1716 25 17 25H18C20.8284 25 22.2426 25 23.1213 24.1213C24 23.2426 24 21.8284 24 19V11C24 8.17157 24 6.75736 23.1213 5.87868C22.2426 5 20.8284 5 18 5H17C14.1716 5 12.7574 5 11.8787 5.87868C11 6.75736 11 8.17157 11 11" stroke="#1C274C" stroke-width="1.5" stroke-linecap="round"/>
<path d="M11 22.5C8.64298 22.5 7.46447 22.5 6.73223 21.7678C6 21.0355 6 19.857 6 17.5V12.5C6 10.143 6 8.96447 6.73223 8.23223C7.46447 7.5 8.64298 7.5 11 7.5" stroke="#1C274C" stroke-width="1.5"/>
<path d="M9 15L18 15M18 15L15.5 17.5M18 15L15.5 12.5" stroke="#1C274C" stroke-width="1.5" stroke-linecap="round" stroke-linejoin="round"/>
</svg>
