<svg width="30" height="30" viewBox="0 0 30 30" fill="none" xmlns="http://www.w3.org/2000/svg">
<path d="M21 11L21.9487 11.3162C22.9387 11.6462 23.4337 11.8112 23.7169 12.2041C24 12.5969 24 13.1187 24 14.1623V19.829C24 21.1199 24 21.7653 23.6603 22.18C23.5449 22.3208 23.4048 22.4394 23.247 22.5301C22.7821 22.797 22.1455 22.6909 20.8721 22.4787C19.6157 22.2693 18.9875 22.1646 18.3648 22.2167C18.1463 22.235 17.9292 22.2676 17.715 22.3144C17.1046 22.4477 16.5299 22.735 15.3806 23.3097C13.8809 24.0596 13.131 24.4345 12.3328 24.5501C12.0924 24.5849 11.8498 24.6021 11.6069 24.6016C10.8004 24.6001 10.0119 24.3373 8.43488 23.8116L8.05132 23.6838C7.06129 23.3538 6.56627 23.1888 6.28314 22.7959C6 22.4031 6 21.8813 6 20.8377V15.908C6 14.2491 6 13.4197 6.48841 12.9736C6.57388 12.8955 6.66809 12.8276 6.76917 12.7712C7.34681 12.4489 8.13369 12.7112 9.70746 13.2358" stroke="#1C274C" stroke-width="1.5"/>
<path d="M9 10.7003C9 7.55211 11.6863 5 15 5C18.3137 5 21 7.55211 21 10.7003C21 13.8238 19.085 17.4687 16.0972 18.7721C15.4007 19.076 14.5993 19.076 13.9028 18.7721C10.915 17.4687 9 13.8238 9 10.7003Z" stroke="#1C274C" stroke-width="1.5"/>
<circle cx="15" cy="11" r="2" stroke="#1C274C" stroke-width="1.5"/>
</svg>
