<svg width="30" height="30" viewBox="0 0 30 30" fill="none" xmlns="http://www.w3.org/2000/svg">
<path d="M5 17C5 13.2288 5 11.3431 6.17157 10.1716C7.34315 9 9.22876 9 13 9H17C20.7712 9 22.6569 9 23.8284 10.1716C25 11.3431 25 13.2288 25 17C25 20.7712 25 22.6569 23.8284 23.8284C22.6569 25 20.7712 25 17 25H13C9.22876 25 7.34315 25 6.17157 23.8284C5 22.6569 5 20.7712 5 17Z" stroke="#1C274C" stroke-width="1.5"/>
<path d="M19 9C19 7.11438 19 6.17157 18.4142 5.58579C17.8284 5 16.8856 5 15 5C13.1144 5 12.1716 5 11.5858 5.58579C11 6.17157 11 7.11438 11 9" stroke="#1C274C" stroke-width="1.5"/>
<path d="M15 20.3333C16.1046 20.3333 17 19.5871 17 18.6667C17 17.7462 16.1046 17 15 17C13.8954 17 13 16.2538 13 15.3333C13 14.4129 13.8954 13.6667 15 13.6667M15 20.3333C13.8954 20.3333 13 19.5871 13 18.6667M15 20.3333V21M15 13V13.6667M15 13.6667C16.1046 13.6667 17 14.4129 17 15.3333" stroke="#1C274C" stroke-width="1.5" stroke-linecap="round"/>
</svg>
