<svg width="16" height="16" viewBox="0 0 16 16" fill="none" xmlns="http://www.w3.org/2000/svg">
<path fill-rule="evenodd" clip-rule="evenodd" d="M16 8C16 12.4183 12.4183 16 8 16C3.58172 16 0 12.4183 0 8C0 3.58172 3.58172 0 8 0C12.4183 0 16 3.58172 16 8Z" fill="#B30013"/>
<path d="M10.8571 4V4.61538H10.2857V5.23077H10.8571V5.84615H11.4286V5.23077H12V4.61538H11.4286V4H10.8571ZM6.35714 4.33385C6.30143 4.32308 6.24214 4.32923 6.18714 4.35538C4.85857 5.00231 4 6.43308 4 8C4 10.2054 5.66643 12 7.71429 12C9.16929 12 10.4979 11.0754 11.0979 9.64385C11.1471 9.52769 11.1229 9.39 11.0393 9.29923C10.9557 9.20923 10.8286 9.18538 10.72 9.23692C10.3093 9.43692 9.875 9.53846 9.42857 9.53846C7.69571 9.53846 6.28571 8.02 6.28571 6.15385C6.28571 5.67308 6.38 5.20538 6.56571 4.76308C6.615 4.64692 6.59214 4.50846 6.50786 4.41846C6.46643 4.37308 6.41286 4.34462 6.35714 4.33385ZM8 4.61538V5.23077H8.57143V4.61538H8ZM5.79571 5.32231C5.74143 5.59462 4.36364 5.99709 4.36364 6.27863C4.36364 8.48401 6.0832 12.7402 8.36364 11.5094C8.62507 11.5094 10.1818 10.4 10.1818 10C9.59396 10.8192 8.69786 11.3846 7.71429 11.3846C5.98143 11.3846 6.18182 10.3077 5.45455 8.30769C5.45455 7.24846 5.79571 6.8 5.79571 5.32231ZM9.14286 6.46154V7.07692H8.57143V7.69231H9.14286V8.30769H9.71429V7.69231H10.2857V7.07692H9.71429V6.46154H9.14286Z" fill="white"/>
</svg>
