<svg width="15" height="15" viewBox="0 0 15 15" fill="none" xmlns="http://www.w3.org/2000/svg">
<path d="M11 1H13C13.2652 1 13.5196 1.10536 13.7071 1.29289C13.8946 1.48043 14 1.73478 14 2V4" stroke="white" stroke-linecap="round" stroke-linejoin="round"/>
<path d="M1 4V2C1 1.73478 1.10536 1.48043 1.29289 1.29289C1.48043 1.10536 1.73478 1 2 1H4" stroke="white" stroke-linecap="round" stroke-linejoin="round"/>
<path d="M11 14H13C13.2652 14 13.5196 13.8946 13.7071 13.7071C13.8946 13.5196 14 13.2652 14 13V11" stroke="white" stroke-linecap="round" stroke-linejoin="round"/>
<path d="M1 11V13C1 13.2652 1.10536 13.5196 1.29289 13.7071C1.48043 13.8946 1.73478 14 2 14H4" stroke="white" stroke-linecap="round" stroke-linejoin="round"/>
<path d="M3 3V6.25H3.8125V7.0625H4.625V6.25H6.25V3H3ZM6.25 6.25V7.0625H7.0625V7.875H5.4375V8.6875H3V11.9375H6.25V8.6875H8.6875V7.875H7.875V7.0625H9.5V6.25H10.3125V7.0625H11.125V6.25H11.9375V3H8.6875V6.25H6.25ZM11.125 7.0625V7.875H11.9375V7.0625H11.125ZM11.125 7.875H10.3125V8.6875H11.125V7.875ZM11.125 8.6875V9.5H11.9375V8.6875H11.125ZM11.125 9.5H10.3125V8.6875H9.5V9.5H7.46875V11.9375H8.28125V10.3125H9.90625V11.125H10.7188V10.3125H11.125V9.5ZM9.90625 11.125H9.09375V11.9375H9.90625V11.125ZM10.3125 7.875V7.0625H9.5V7.875H10.3125ZM5.4375 7.875V7.0625H4.625V7.875H5.4375ZM3.8125 7.0625H3V7.875H3.8125V7.0625ZM7.0625 3V4.625H6.65625V5.4375H7.0625V5.84375H7.875V4.625H8.28125V3.8125H7.875V3H7.0625ZM3.8125 3.8125H5.4375V5.4375H3.8125V3.8125ZM9.5 3.8125H11.125V5.4375H9.5V3.8125ZM4.21875 4.21875V5.03125H5.03125V4.21875H4.21875ZM9.90625 4.21875V5.03125H10.7188V4.21875H9.90625ZM3.8125 9.5H5.4375V11.125H3.8125V9.5ZM4.21875 9.90625V10.7188H5.03125V9.90625H4.21875ZM11.125 11.125V11.9375H11.9375V11.125H11.125Z" fill="white"/>
</svg>
