<svg width="16" height="16" viewBox="0 0 16 16" fill="none" xmlns="http://www.w3.org/2000/svg">
<path fill-rule="evenodd" clip-rule="evenodd" d="M0 8C0 12.4183 3.58172 16 8 16C12.4183 16 16 12.4183 16 8C16 3.58172 12.4183 0 8 0C3.58172 0 0 3.58172 0 8Z" fill="#B30013"/>
<path d="M4 9.29954C4 8.02681 4 7.39041 4.35147 6.99498C4.70294 6.59961 5.26863 6.59961 6.4 6.59961H9.6C10.7314 6.59961 11.2971 6.59961 11.6485 6.99498C12 7.39041 12 8.02681 12 9.29954C12 10.5723 12 11.2087 11.6485 11.6041C11.2971 11.9995 10.7314 11.9995 9.6 11.9995H6.4C5.26863 11.9995 4.70294 11.9995 4.35147 11.6041C4 11.2087 4 10.5723 4 9.29954Z" fill="white" stroke="#68749B" stroke-opacity="0.16" stroke-width="1.5"/>
<path d="M5.59961 6.59991V5.69993C5.59961 4.2088 6.67412 3 7.99962 3C9.32507 3 10.3996 4.2088 10.3996 5.69993V6.59991" fill="white"/>
<path d="M5.59961 6.59991V5.69993C5.59961 4.2088 6.67412 3 7.99962 3C9.32507 3 10.3996 4.2088 10.3996 5.69993V6.59991" stroke="#68749B" stroke-opacity="0.16" stroke-width="1.5" stroke-linecap="round"/>
</svg>
