<svg width="30" height="30" viewBox="0 0 30 30" fill="none" xmlns="http://www.w3.org/2000/svg">
<path d="M24.9991 14C24.99 10.8857 24.8915 9.23467 23.8284 8.17157C22.6569 7 20.7712 7 17 7H13C9.22876 7 7.34315 7 6.17157 8.17157C5 9.34315 5 11.2288 5 15C5 18.7712 5 20.6569 6.17157 21.8284C7.34315 23 9.22876 23 13 23H14.5" stroke="#1C274C" stroke-width="1.5" stroke-linecap="round"/>
<path d="M18.5 17V23M18.5 23L20.5 21M18.5 23L16.5 21M23 23V17M23 17L25 19M23 17L21 19" stroke="#1C274C" stroke-width="1.5" stroke-linecap="round" stroke-linejoin="round"/>
<path d="M13 19H9" stroke="#1C274C" stroke-width="1.5" stroke-linecap="round"/>
<path d="M5 13L25 13" stroke="#1C274C" stroke-width="1.5" stroke-linecap="round"/>
</svg>
