<svg width="30" height="30" viewBox="0 0 30 30" fill="none" xmlns="http://www.w3.org/2000/svg">
<path d="M12.1707 7C12.5825 5.83481 13.6937 5 14.9999 5C16.3062 5 17.4174 5.83481 17.8292 7" stroke="#1C274C" stroke-width="1.5" stroke-linecap="round"/>
<path d="M23.5001 9H6.5" stroke="#1C274C" stroke-width="1.5" stroke-linecap="round"/>
<path d="M21.3735 18.3991C21.1965 21.054 21.108 22.3815 20.243 23.1907C19.378 24 18.0476 24 15.3868 24H14.6134C11.9526 24 10.6222 24 9.75719 23.1907C8.89218 22.3815 8.80368 21.054 8.62669 18.3991L8.16675 11.5M21.8334 11.5L21.6334 14.5" stroke="#1C274C" stroke-width="1.5" stroke-linecap="round"/>
<path d="M12.5 14L13 19" stroke="#1C274C" stroke-width="1.5" stroke-linecap="round"/>
<path d="M17.5 14L17 19" stroke="#1C274C" stroke-width="1.5" stroke-linecap="round"/>
</svg>
