<svg width="30" height="30" viewBox="0 0 30 30" fill="none" xmlns="http://www.w3.org/2000/svg">
<path d="M12 22C9.19108 22 7.78661 22 6.77772 21.3259C6.34096 21.034 5.96596 20.659 5.67412 20.2223C5 19.2134 5 17.8089 5 15C5 12.1911 5 10.7866 5.67412 9.77772C5.96596 9.34096 6.34096 8.96596 6.77772 8.67412C7.78661 8 9.19108 8 12 8L18 8C20.8089 8 22.2134 8 23.2223 8.67412C23.659 8.96596 24.034 9.34096 24.3259 9.77772C25 10.7866 25 12.1911 25 15C25 17.8089 25 19.2134 24.3259 20.2223C24.034 20.659 23.659 21.034 23.2223 21.3259C22.2134 22 20.8089 22 18 22H12Z" stroke="#1C274C" stroke-width="1.5"/>
<path d="M12 12C10.3431 12 9 13.3431 9 15C9 16.6569 10.3431 18 12 18" stroke="#1C274C" stroke-width="1.5"/>
<path d="M18 12C19.6569 12 21 13.3431 21 15C21 16.6569 19.6569 18 18 18" stroke="#1C274C" stroke-width="1.5"/>
<path d="M12 8V21.5" stroke="#1C274C" stroke-width="1.5" stroke-linecap="round"/>
<path d="M18 8V21.5" stroke="#1C274C" stroke-width="1.5" stroke-linecap="round"/>
</svg>
