<svg width="30" height="30" viewBox="0 0 30 30" fill="none" xmlns="http://www.w3.org/2000/svg">
<path d="M9 11H13" stroke="#1C274C" stroke-width="1.5" stroke-linecap="round" stroke-linejoin="round"/>
<path d="M23.8333 12H21.2308C19.4465 12 18 13.3431 18 15C18 16.6569 19.4465 18 21.2308 18H23.8333C23.9167 18 23.9583 18 23.9935 17.9979C24.5328 17.965 24.9623 17.5662 24.9977 17.0654C25 17.0327 25 16.994 25 16.9167V13.0833C25 13.006 25 12.9673 24.9977 12.9346C24.9623 12.4338 24.5328 12.035 23.9935 12.0021C23.9583 12 23.9167 12 23.8333 12Z" stroke="#1C274C" stroke-width="1.5"/>
<circle cx="21" cy="15" r="1" fill="#1C274C"/>
<path d="M23.965 12C23.8873 10.1277 23.6366 8.97975 22.8284 8.17157C21.6569 7 19.7712 7 16 7L13 7C9.22876 7 7.34315 7 6.17157 8.17157C5 9.34315 5 11.2288 5 15C5 18.7712 5 20.6569 6.17157 21.8284C7.34315 23 9.22876 23 13 23H16C19.7712 23 21.6569 23 22.8284 21.8284C23.6366 21.0203 23.8873 19.8723 23.965 18" stroke="#1C274C" stroke-width="1.5"/>
</svg>
